<svg xmlns="http://www.w3.org/2000/svg" xmlns:xlink="http://www.w3.org/1999/xlink" width="200" zoomAndPan="magnify" viewBox="0 0 150 44.999999" height="60" preserveAspectRatio="xMidYMid meet" version="1.0"><defs><g/><clipPath id="da27d827c8"><path d="M 28 12 L 41.28125 12 L 41.28125 33.671875 L 28 33.671875 Z M 28 12 " clip-rule="nonzero"/></clipPath><clipPath id="b8e3352e0c"><path d="M 21.78125 9.671875 L 35 9.671875 L 35 31 L 21.78125 31 Z M 21.78125 9.671875 " clip-rule="nonzero"/></clipPath></defs><g fill="#38bdf8" fill-opacity="1"><g transform="translate(43.07793, 32.81407)"><g><path d="M 15.96875 0 L 15.96875 -4.625 L 5.875 -4.625 L 5.875 -7.96875 L 15.96875 -7.96875 L 15.96875 -12.4375 L 5.875 -12.4375 L 5.875 -15.625 L 15.96875 -15.625 L 15.96875 -20.28125 L 0.796875 -20.28125 L 0.796875 0 Z M 15.96875 0 "/></g></g></g><g fill="#38bdf8" fill-opacity="1"><g transform="translate(59.828738, 32.81407)"><g><path d="M 16.03125 0 L 16.03125 -7.96875 L 13.78125 -10.1875 L 16.03125 -12.4375 L 16.03125 -20.28125 L 0.796875 -20.28125 L 0.796875 0 Z M 10.953125 -12.4375 L 5.875 -12.4375 L 5.875 -15.625 L 10.953125 -15.625 Z M 10.953125 -4.625 L 5.875 -4.625 L 5.875 -7.96875 L 10.953125 -7.96875 Z M 10.953125 -4.625 "/></g></g></g><g fill="#38bdf8" fill-opacity="1"><g transform="translate(76.640345, 32.81407)"><g><path d="M 16.03125 0 L 16.03125 -20.28125 L 10.953125 -20.28125 L 10.953125 -4.625 L 5.875 -4.625 L 5.875 -20.28125 L 0.796875 -20.28125 L 0.796875 0 Z M 16.03125 0 "/></g></g></g><g fill="#38bdf8" fill-opacity="1"><g transform="translate(93.451952, 32.81407)"><g><path d="M 15.96875 0 L 15.96875 -4.625 L 5.875 -4.625 L 5.875 -20.28125 L 0.796875 -20.28125 L 0.796875 0 Z M 15.96875 0 "/></g></g></g><g fill="#38bdf8" fill-opacity="1"><g transform="translate(110.020363, 32.81407)"><g><path d="M 16.03125 0 L 16.03125 -20.28125 L 0.796875 -20.28125 L 0.796875 0 L 5.875 0 L 5.875 -5.65625 L 10.953125 -5.65625 L 10.953125 0 Z M 10.953125 -10.28125 L 5.875 -10.28125 L 5.875 -15.625 L 10.953125 -15.625 Z M 10.953125 -10.28125 "/></g></g></g><g clip-path="url(#da27d827c8)"><path fill="#00adef" d="M 38.117188 27.050781 L 28.390625 21.4375 L 28.390625 26.035156 L 41.609375 33.667969 L 41.609375 12.414062 L 38.117188 12.414062 L 38.117188 27.050781 " fill-opacity="1" fill-rule="nonzero"/></g><g clip-path="url(#b8e3352e0c)"><path fill="#3871c1" d="M 21.78125 9.667969 L 21.78125 30.921875 L 25.273438 30.921875 L 25.273438 16.285156 L 35 21.902344 L 35 17.300781 L 21.78125 9.667969 " fill-opacity="1" fill-rule="nonzero"/></g></svg>